<svg xmlns="http://www.w3.org/2000/svg" viewBox="0 0 1024 1024" role="img" aria-label="Brekeke Flow Builder">
  <!-- Logo ếch Brekeke kiểu knockout: khung cam bo góc, nét ếch là phần khoét
       trong suốt để lộ nền phía dưới. Dọn từ bản auto-trace (bỏ path nhiễu). -->
  <path transform="translate(80,0)" fill="#FE7F1D" d="M0 0 C285.45 0 570.9 0 865 0 C865 0.66 865 1.32 865 2 C865.969375 2.268125 866.93875 2.53625 867.9375 2.8125 C882.72899424 7.06871009 896.00091573 13.22158607 908 23 C908.83917969 23.67546875 909.67835938 24.3509375 910.54296875 25.046875 C927.83486178 39.73828179 937.17550244 59.46081171 943 81 C943.17314656 81.57715124 943.34629311 82.15430249 943.52468653 82.74894316 C944.11127509 85.52699232 944.12571841 88.1045561 944.12649983 90.94537622 C944.12925958 92.17240985 944.13201932 93.39944349 944.13486269 94.66365996 C944.13287472 96.03011361 944.13079526 97.39656713 944.12863445 98.76302052 C944.12998047 100.21688381 944.13176399 101.67074675 944.13394669 103.12460902 C944.13869341 107.14271999 944.13716964 111.16080841 944.13466892 115.17892052 C944.13304088 119.54167271 944.13717246 123.90441997 944.14057809 128.26717061 C944.14574165 135.92114524 944.14714764 143.57511354 944.14612198 151.22908974 C944.1446005 162.61072846 944.14875113 173.99236015 944.1539966 185.37399751 C944.1636816 206.88178277 944.16648127 228.38956566 944.16705366 249.89735285 C944.1675127 266.50284469 944.16956842 283.1083356 944.17275429 299.71382713 C944.17365179 304.48878691 944.17454161 309.2637467 944.17542917 314.03870648 C944.17565021 315.22567952 944.17587126 316.41265255 944.17609901 317.63559446 C944.18225561 351.03563147 944.18619933 384.43566816 944.18575573 417.83570576 C944.18574015 419.09567924 944.18572457 420.35565273 944.18570852 421.65380724 C944.18562541 428.04029163 944.18552637 434.42677602 944.18542381 440.81326041 C944.1853939 442.71592629 944.1853939 442.71592629 944.18536337 444.65702985 C944.18532294 447.22213381 944.18528114 449.78723777 944.18523798 452.35234173 C944.18462509 492.26997299 944.19213332 532.18759577 944.20581055 572.10522461 C944.22116013 616.92248968 944.22977745 661.73974917 944.22884732 706.55701703 C944.22877269 711.33291988 944.22872399 716.10882272 944.22869301 720.88472557 C944.22868135 722.06072867 944.2286697 723.23673176 944.22865769 724.44837132 C944.22862688 743.40049075 944.23502173 762.35260283 944.24362527 781.30472007 C944.25208855 800.34116186 944.25310213 819.37759285 944.24651595 838.41403548 C944.24281144 849.73259054 944.24467943 861.05111288 944.25445829 872.3696645 C944.26043447 879.92308844 944.25918928 887.47648855 944.25198779 895.02991137 C944.24808622 899.33828916 944.24738796 903.64660339 944.25544515 907.95497683 C944.26270746 911.87247734 944.26080707 915.78986117 944.25152128 919.70735643 C944.24979635 921.11760587 944.25144006 922.52786437 944.25682249 923.93810459 C944.30267233 936.81074954 944.30267233 936.81074954 942 943 C941.62452026 944.24547607 941.62452026 944.24547607 941.24145508 945.51611328 C931.68950422 976.00353709 915.56799958 998.53042148 887.15283203 1013.91064453 C880.83235547 1017.10887161 874.13909343 1020 867 1020 C866.67 1020.66 866.34 1021.32 866 1022 C864.00390625 1022.37890625 864.00390625 1022.37890625 861.5625 1022.5625 C858.15371795 1022.8061175 858.15371795 1022.8061175 855 1024 C853.11674828 1024.09658279 851.23001253 1024.12747655 849.34428626 1024.12880117 C848.1309641 1024.13207336 846.91764194 1024.13534555 845.66755244 1024.13871691 C844.30620436 1024.13730661 842.94485638 1024.13580458 841.58350849 1024.13422108 C840.14292414 1024.13617258 838.70234032 1024.13856087 837.26175734 1024.14134905 C833.27113921 1024.14777756 829.28054113 1024.14790841 825.2899188 1024.14707164 C820.96032413 1024.14724058 816.63073678 1024.15314046 812.30114573 1024.1583125 C803.69928719 1024.16765916 795.09743381 1024.17156402 786.49557082 1024.17383147 C776.19784035 1024.17678825 765.90011675 1024.18548267 755.60238987 1024.19424575 C730.70577465 1024.2151146 705.80915823 1024.22556447 680.9125363 1024.23437535 C669.13741479 1024.2385791 657.36229378 1024.24380151 645.5871727 1024.24905988 C605.29105349 1024.26695376 564.99493413 1024.28194968 524.69881153 1024.28938007 C522.16774542 1024.28985483 519.63667932 1024.29033072 517.10561321 1024.29080774 C515.85040771 1024.29104411 514.59520221 1024.29128049 513.30196018 1024.29152403 C506.94227358 1024.29272525 500.58258699 1024.29394069 494.22290039 1024.29516602 C492.96079063 1024.29540617 491.69868087 1024.29564632 490.39832536 1024.29589374 C449.48399349 1024.30378546 408.56969062 1024.32721279 367.65537141 1024.35972196 C324.41420217 1024.3940173 281.17304989 1024.41373104 237.93186682 1024.41702431 C233.18499767 1024.41744186 228.43812853 1024.41792143 223.69125938 1024.41844749 C221.93799794 1024.41863228 221.93799794 1024.41863228 220.14931708 1024.4188208 C201.33441128 1024.42115343 182.51953913 1024.4368172 163.70464533 1024.45728934 C144.79103665 1024.4775423 125.87746841 1024.48302718 106.96385089 1024.47351871 C95.72693324 1024.46830137 84.49015016 1024.47419225 73.25325186 1024.49605338 C65.74396707 1024.50955838 58.23477494 1024.50848706 50.72548922 1024.49565142 C46.44879008 1024.48875277 42.17234826 1024.48809202 37.89567206 1024.50521151 C33.99747246 1024.52068838 30.09973546 1024.51741784 26.20154903 1024.49980123 C24.15455597 1024.49521352 22.10754672 1024.51007684 20.06061015 1024.52596101 C10.73459012 1024.45675402 2.85375551 1022.73917807 -6 1020 C-7.08347002 1019.67869471 -8.16694003 1019.35738941 -9.28324248 1019.0263476 C-21.7373521 1015.26739405 -32.89502441 1009.14522274 -43 1001 C-43.83015625 1000.33484375 -44.6603125 999.6696875 -45.515625 998.984375 C-65.7756908 981.78243234 -77.53033631 956.29195095 -80 930 C-80.5276254 919.54869775 -80.41610782 909.06985173 -80.39160402 898.60808545 C-80.38484852 894.29790182 -80.39558307 889.98775383 -80.40399987 885.67757797 C-80.41633427 878.13576689 -80.41759319 870.59401806 -80.41144943 863.05220032 C-80.40233778 851.83702757 -80.41040685 840.62191213 -80.42174067 829.40674376 C-80.44138714 809.37342335 -80.44375894 789.34012883 -80.43854547 769.30680108 C-80.43398537 751.77512786 -80.43459115 734.24346488 -80.44038582 716.71179199 C-80.44114269 714.3586177 -80.44189867 712.00544341 -80.44265376 709.65226912 C-80.44379898 706.1061147 -80.44494886 702.55996027 -80.44611301 699.01380585 C-80.45681479 666.05422671 -80.46154646 633.09465098 -80.45364285 600.1350708 C-80.45334567 598.89315345 -80.4530485 597.65123609 -80.45274232 596.37168488 C-80.45029347 586.28690705 -80.44768184 576.20212926 -80.44505819 566.11735147 C-80.43495427 526.77483269 -80.44331522 487.43235658 -80.46655273 448.08984375 C-80.49262818 403.87117558 -80.50547269 359.6525331 -80.49836498 315.43385696 C-80.49764894 310.71864065 -80.49697455 306.00342433 -80.49632454 301.28820801 C-80.49615473 300.127232 -80.49598492 298.96625599 -80.49580997 297.77009889 C-80.49350776 280.25097904 -80.50148014 262.73188306 -80.51461601 245.21276855 C-80.52952808 225.28943828 -80.53036913 205.36616393 -80.5125451 185.44283485 C-80.50298427 174.29735903 -80.50441264 163.15201365 -80.52177979 152.00654654 C-80.53227673 144.55618421 -80.52815837 137.10592113 -80.51229975 129.65556855 C-80.50367679 125.4144353 -80.50122155 121.17355745 -80.51656907 116.93243742 C-80.62545299 84.60589714 -80.62545299 84.60589714 -76 71 C-75.60152011 69.81078571 -75.20304022 68.62157143 -74.79248518 67.39632034 C-69.93844113 53.5749788 -62.41852754 42.05831067 -53 31 C-52.41605469 30.31164062 -51.83210938 29.62328125 -51.23046875 28.9140625 C-38.79373935 15.50128599 -21.0883857 7.05103925 -3.5625 2.7890625 C-2.716875 2.52867188 -1.87125 2.26828125 -1 2 C-0.67 1.34 -0.34 0.68 0 0 Z M545.54296875 214.77734375 C541.15732297 218.61057332 535.8327255 218.228347 530.2109375 218.578125 C528.63185749 218.68433558 527.05283963 218.79147322 525.47387695 218.89941406 C524.64393219 218.95585083 523.81398743 219.0122876 522.95889282 219.07043457 C447.981575 224.28091938 374.13055366 243.57080439 304.5625 271.6875 C303.80321198 271.9937027 303.04392395 272.2999054 302.2616272 272.61538696 C291.96256244 276.78542189 281.87508505 281.30850084 271.85696411 286.11251831 C269.29689352 287.33602918 266.72476303 288.53318027 264.15234375 289.73046875 C229.73376871 305.88263507 196.80270075 325.31383149 167 349 C166.16726562 349.65097656 165.33453125 350.30195313 164.4765625 350.97265625 C154.40550055 358.90891381 144.72904777 367.3500329 135.24609375 375.9765625 C133.09030535 377.91864666 130.89504343 379.80471622 128.6875 381.6875 C125.3868941 384.55730392 122.73885929 387.59493169 120 391 C118.34718687 392.680406 116.67894816 394.345706 115 396 C72.31052464 438.07178199 33.31379214 497.92545971 32.6875 559.6875 C32.71501617 571.46075088 33.27148512 583.77213341 37.37109375 594.93359375 C38.6162766 598.36616013 39.6499137 601.36377028 40 605 C38.59124187 607.93452275 36.82362628 609.80293312 34.55859375 612.13671875 C17.46079388 631.2705925 8.88839588 661.87969808 10.10205078 687.12255859 C12.14601651 715.07428281 26.1868511 739.93562533 46.8125 758.5625 C73.3883765 780.90088438 106.78081538 797.05629517 140.9765625 803.3046875 C143.56135369 803.89912268 146.01607493 804.61885586 148.54296875 805.4140625 C154.51277162 807.23091089 160.55206854 808.39119777 166.6875 809.5 C167.87013428 809.71503174 169.05276855 809.93006348 170.27124023 810.15161133 C194.27552225 814.42929954 218.79405334 817.51618653 243.21582031 817.0144043 C248.65918291 816.90877391 248.65918291 816.90877391 250.8515625 817.49560547 C253.61374456 818.14409048 256.17115838 818.1117291 259.0078125 818.09765625 C260.15894531 818.09443359 261.31007813 818.09121094 262.49609375 818.08789062 C263.69363281 818.07951172 264.89117187 818.07113281 266.125 818.0625 C267.33027344 818.05798828 268.53554688 818.05347656 269.77734375 818.04882812 C272.85160461 818.0367519 275.92577728 818.01912928 279 818 C279.66 818 280.32 818 281 818 C281.6496875 817.9278125 282.299375 817.855625 282.96875 817.78125 C287.97423643 817.22508484 292.88912863 816.96510002 297.9276123 817.04231262 C308.86407676 817.20111038 319.62302507 816.37567217 330.5 815.3125 C331.43031036 815.22352448 332.36062073 815.13454895 333.31912231 815.0428772 C383.52754042 810.21160089 432.99405634 800.57721467 481 785 C482.09618652 784.64824707 483.19237305 784.29649414 484.32177734 783.93408203 C506.09321547 776.93083643 527.36113961 768.87194616 548.4375 760 C549.5519751 759.53094238 550.6664502 759.06188477 551.81469727 758.57861328 C552.84393311 758.1401709 553.87316895 757.70172852 554.93359375 757.25 C555.84165771 756.86328125 556.74972168 756.4765625 557.68530273 756.078125 C560.19063286 754.9823448 560.19063286 754.9823448 563 753 C563.86625 752.731875 564.7325 752.46375 565.625 752.1875 C570.00605745 750.64601682 574.20119588 748.69515155 578 746 C578.33 745.01 578.66 744.02 579 743 C577.84660454 741.12933066 577.84660454 741.12933066 576.0625 739.3125 C575.09570312 738.26255859 575.09570312 738.26255859 574.109375 737.19140625 C570.78928963 733.74220645 567.41669135 730.35328883 564 727 C563.30261719 726.26265625 562.60523438 725.5253125 561.88671875 724.765625 C560.1872861 722.77223762 560.1872861 722.77223762 558 723 C558 722.34 558 721.68 558 721 C557.34 721 556.68 721 556 721 C556 720.34 556 719.68 556 719 C552.5595444 715.17656279 552.5595444 715.17656279 548 713 C547.731875 712.443125 547.46375 711.88625 547.1875 711.3125 C545.467157 707.96235837 542.91424712 705.37574493 540 703 C539.34 703 538.68 703 538 703 C538 702.34 538 701.68 538 701 C532.77402698 698.1090362 530.03812055 697.839277 524.30444336 699.26904297 C520.86469449 700.3601128 517.84382057 702.05931381 514.75 703.875 C502.37834973 710.75162432 489.14453256 715.81452527 476 721 C475.02369629 721.38575195 474.04739258 721.77150391 473.04150391 722.16894531 C432.13721342 738.13555068 388.70023014 746.8174708 345.25 752.25 C343.48257446 752.47647217 343.48257446 752.47647217 341.67944336 752.70751953 C317.91412733 755.51685322 294.0831978 756.31882251 270.1730957 756.20581055 C266.83830574 756.19048992 263.50385046 756.18509174 260.16905022 756.18562126 C246.83080005 756.18512592 233.50588525 756.03371265 220.17578125 755.55078125 C218.52101021 755.4930378 218.52101021 755.4930378 216.83280945 755.43412781 C215.82748672 755.3931044 214.822164 755.35208099 213.78637695 755.30981445 C212.90609329 755.27435013 212.02580963 755.2388858 211.11885071 755.2023468 C209 755 209 755 207 754 C205.08087885 753.7083453 203.15473802 753.46239639 201.2265625 753.23828125 C160.20938255 748.25352593 107.38022293 741.16317923 78.91015625 707.53125 C71.24720233 697.29237711 68.07566583 685.68121613 69 673 C70.04450024 667.02113654 71.01656381 661.71986977 75 657 C75.50917969 657.57105469 76.01835937 658.14210938 76.54296875 658.73046875 C79.52231293 661.48245439 82.7802998 663.37506341 86.3125 665.3125 C87.37537231 665.9000708 87.37537231 665.9000708 88.4597168 666.49951172 C112.38456176 679.56683284 137.90129125 687.52989697 164.49853516 693.06616211 C166.07977416 693.39641266 167.66050907 693.72908629 169.24072266 694.06420898 C171.53171053 694.5498793 173.82421884 695.02768683 176.1171875 695.50390625 C176.81738007 695.65388565 177.51757263 695.80386505 178.23898315 695.95838928 C182.22324595 696.77583507 185.93505734 697.15159426 190 697 C190 697.33 190 697.66 190 698 C193.9423074 698.41450769 197.88519088 698.82304165 201.82861328 699.22680664 C203.80401315 699.43019128 205.77896973 699.63786741 207.75390625 699.84570312 C224.70738919 701.57478969 241.58673009 702.20472874 258.625 702.1875 C259.55188629 702.18756042 260.47877258 702.18762085 261.43374634 702.18768311 C297.17976363 704.04646681 297.17976363 704.04646681 331 697 C332.61874428 696.82013952 334.24243869 696.68377673 335.8671875 696.5703125 C342.0390175 696.05047381 348.04694925 695.0491848 354.125 693.875 C355.23721924 693.66125732 356.34943848 693.44751465 357.49536133 693.22729492 C368.6676743 690.99849278 379.5796287 687.97342758 390.49755859 684.74072266 C393.65890625 683.80496375 396.82844378 682.90045582 400 682 C400 681.34 400 680.68 400 680 C401.44632812 679.85884766 401.44632812 679.85884766 402.921875 679.71484375 C407.6400909 679.03219316 411.85336014 677.35393129 416.25 675.5625 C417.11971436 675.20978027 417.98942871 674.85706055 418.88549805 674.49365234 C448.33596626 662.26892969 480.65713806 642.95666659 493.71484375 612.4765625 C501.32600501 591.8870989 500.43608316 571.80258195 491.390625 551.75 C474.87497673 519.08984162 442.2081422 497.93450324 408.31005859 486.74511719 C407.54773926 486.49922852 406.78541992 486.25333984 406 486 C405.26990723 485.76442383 404.53981445 485.52884766 403.78759766 485.28613281 C372.87688885 475.55408391 313.31478893 463.84260554 283 479 C280.89807654 479.15830386 278.79307967 479.27663032 276.6875 479.375 C270.76691146 479.76530249 265.31059905 480.68421757 259.56640625 482.12890625 C256.25242422 482.93834545 252.9394606 483.62326704 249.59375 484.28222656 C217.02525404 490.78235555 184.98561093 501.78699203 155 516 C154.03884277 516.45375 153.07768555 516.9075 152.08740234 517.375 C130.42512107 527.68793053 109.56071222 540.0408109 91.015625 555.34375 C89.05148858 556.95769155 87.03810535 558.4812451 85 560 C88.70735203 540.07395844 93.53099918 520.68409838 102.6875 502.5 C103.04126709 501.79657471 103.39503418 501.09314941 103.75952148 500.3684082 C115.29740121 477.5325376 129.17627552 456.9154077 146.3034668 437.88549805 C147.55319446 436.49657205 148.7958106 435.10123922 150.03442383 433.70239258 C155.51863569 427.53769764 161.21542127 421.63273674 167.0625 415.8125 C167.90876953 414.96236328 168.75503906 414.11222656 169.62695312 413.23632812 C174.5888427 408.28208988 179.66240768 403.54544592 185 399 C186.02122932 398.11113183 187.04208984 397.22183968 188.0625 396.33203125 C230.45081598 359.97503151 281.52266586 330.85267559 333.95507812 311.74536133 C336.54738808 310.80048044 339.12407907 309.81643401 341.703125 308.8359375 C367.0877774 299.25984333 392.71873575 291.12015471 419.03179932 284.49609375 C421.01338189 283.99662704 422.99376064 283.49256916 424.97412109 282.98828125 C454.64758037 275.4683706 484.80897569 270.05840427 515.21484375 266.5078125 C518.80005569 266.23510242 518.80005569 266.23510242 521 265 C523.28914743 264.83518139 525.58190857 264.72035628 527.875 264.625 C536.16932439 264.20088472 544.42493584 263.45756208 552.6875 262.625 C553.9048584 262.5110791 555.1222168 262.3971582 556.37646484 262.27978516 C563.52065912 261.53545333 569.10536134 260.89463866 574.375 255.625 C576.84856889 252.45151451 578.85680843 249.00136595 580.9375 245.5625 C587.92044938 234.10131982 595.66064233 226.82126146 609 223 C622.55126385 220.44352044 635.09965275 223.95890763 646.37109375 231.609375 C655.2925834 238.65028083 659.75252249 248.57729859 661.625 259.5625 C662.81828891 272.19038159 658.89600809 282.06398854 651.75 292.1875 C643.2681494 300.86211993 633.04379477 304.61696215 621.0625 305.1875 C617.4250592 305.17514876 613.95648515 304.70740587 610.36791992 304.12841797 C601.70018168 302.63398986 601.70018168 302.63398986 594 306 C590.45959689 310.01245686 590 314.80732055 590 320 C590.80107806 326.88426462 593.72580885 331.67034077 598.5625 336.625 C609.37877395 345.1352663 624.2588891 344.74450915 637.1875 343.3125 C658.75923333 340.19972718 677.45565159 329.59471075 690.59375 312.12988281 C696.63819395 303.61042984 701.06677585 294.47284877 702 284 C712.14019246 287.39589584 721.88249846 291.74547589 731.67919922 296.01025391 C733.31886722 296.70951901 734.97401392 297.37300551 736.63867188 298.01049805 C739.56780565 299.23793593 741.58352582 300.94637102 744 303 C744.87398437 303.69738281 745.74796875 304.39476562 746.6484375 305.11328125 C758.51675886 314.68615363 769.48953163 325.18182763 772 341 C772.50633657 350.06537205 772.58454432 358.50492138 769 367 C768.52433594 368.17369141 768.52433594 368.17369141 768.0390625 369.37109375 C760.33739799 386.44038566 745.75898872 399.11040907 731 410 C730.44666992 410.40831055 729.89333984 410.81662109 729.32324219 411.23730469 C712.82816365 423.20432245 694.1463647 431.98992492 675.92575073 440.98718262 C661.57612189 448.07412561 647.68565538 455.68583854 634 464 C632.52252535 464.87956159 631.04468824 465.75851474 629.56640625 466.63671875 C620.1534985 472.29705442 611.44866621 478.72913369 602.84375 485.546875 C601.30640026 486.75851505 599.7492661 487.94499895 598.1875 489.125 C567.58254811 512.84383772 544.70051997 545.24544141 539 584 C538.21227524 598.65406767 537.90450506 613.80454067 542 628 C542.34659668 629.21478027 542.34659668 629.21478027 542.70019531 630.45410156 C549.96524875 655.22839072 562.77907984 674.03526351 580 693 C580.69738281 693.77085937 581.39476562 694.54171875 582.11328125 695.3359375 C598.3317314 712.353155 620.45094619 726.19117073 643.25 731.9375 C644.38900757 732.23672363 644.38900757 732.23672363 645.55102539 732.54199219 C664.77425091 736.92627088 685.84043694 735.18786166 705.45996094 735.18530273 C709.37176781 735.18520011 713.28339726 735.19899929 717.19516182 735.21607494 C720.25461629 735.22725205 723.31402804 735.22922042 726.37350082 735.22869301 C727.81578066 735.22985884 729.25806212 735.23420022 730.7003212 735.24202538 C744.22690402 735.88983703 744.22690402 735.88983703 756.74099731 731.82658386 C759.63126037 728.79518858 760.86778902 725.34935012 761.12890625 721.203125 C760.52379815 710.86127745 755.1041766 703.78986457 747.875 696.875 C730.28183931 681.92081341 707.8566547 681.78360902 686.03857422 682.09594727 C657.34903341 682.47875581 636.3426888 675.85622124 615.49609375 655.5625 C599.17994615 638.30994741 590.55337569 616.90220745 590.8515625 593.13671875 C591.79179365 573.26814998 601.24647177 554.38709322 615.4375 540.5625 C616.283125 539.716875 617.12875 538.87125 618 538 C618 537.34 618 536.68 618 536 C618.55945313 535.7628125 619.11890625 535.525625 619.6953125 535.28125 C622.52906313 533.70587677 624.53611036 531.74647151 626.875 529.5 C647.71717331 510.26533474 674.67906606 496.79658828 699.7746582 484.01831055 C709.81228224 478.88665056 719.61566353 473.42995042 729.3125 467.6875 C730.42625 467.03023926 731.54 466.37297852 732.6875 465.69580078 C739.33384009 461.72623608 745.70219772 457.49709238 752 453 C753.41028931 452.03414231 754.82295349 451.07174061 756.23828125 450.11328125 C764.96904187 444.14154204 772.97182436 437.85625019 780.52099609 430.44384766 C781.95920683 429.03982351 783.42656093 427.66584787 784.89453125 426.29296875 C800.88474985 411.01839629 815.80970657 388.4756363 816.859375 365.7578125 C817 364 817 364 818 363 C820.18354745 336.61672322 814.36210912 311.96143179 797.49951172 291.14794922 C794.15517113 287.27583487 790.59648482 283.63683809 787 280 C786.35933594 279.28714844 785.71867188 278.57429688 785.05859375 277.83984375 C775.97771246 267.94635563 763.81695748 260.69796267 752.0625 254.4375 C751.30670654 254.03225098 750.55091309 253.62700195 749.7722168 253.20947266 C745.04980286 250.77997803 740.37987316 249.07045345 735.25341797 247.68334961 C733.04928913 247.01494694 731.11292822 246.16623308 729.0625 245.125 C725.89276966 243.57421795 722.94540889 242.75921325 719.4921875 242.16015625 C706.8299273 239.82694987 706.8299273 239.82694987 703.49951172 236.50195312 C701.03669673 232.91123147 699.47814378 228.9272238 697.85253906 224.90722656 C690.37152362 208.17134666 672.46868174 194.0032471 655.77490234 187.34790039 C649.65690396 185.04595878 643.48376505 182.952767 637 182 C636.26265625 181.89042969 635.5253125 181.78085938 634.765625 181.66796875 C600.02495792 177.41053406 569.22629359 189.34488118 545.54296875 214.77734375 Z"/>
  <!-- Đảo cam nằm giữa vòng bụng (giữ phần nền lộ đúng vùng vòng) -->
  <path transform="translate(403.5546875,522.91748046875)" fill="#FE7F1D" d="M0 0 C28.38502962 -0.7901295 58.44730468 1.86345585 84.4453125 14.08251953 C85.06986328 14.37497559 85.69441406 14.66743164 86.33789062 14.96875 C100.12145662 21.53715468 113.34878727 30.23654198 119.6015625 44.77001953 C122.17082711 52.5664087 121.72020541 59.43324859 118.10546875 66.82080078 C102.8885916 92.95665849 71.50135728 102.49911456 43.95898438 110.03662109 C-12.10517489 124.56873952 -72.32542922 124.97906863 -129.5546875 118.08251953 C-130.8845166 117.92444824 -130.8845166 117.92444824 -132.24121094 117.76318359 C-162.07682903 114.05953544 -190.68604492 105.48052107 -216.5546875 90.08251953 C-206.43360571 71.61315691 -179.52528154 57.92727035 -161.47509766 48.13085938 C-159.69427209 47.15871788 -157.92658479 46.1626134 -156.16015625 45.16455078 C-109.21851489 19.14546957 -53.84492062 1.7392568 0 0 Z"/>
</svg>
